<svg xmlns="http://www.w3.org/2000/svg" viewBox="0.00 0.00 600.00 1013.05" width="600" height="1013"><title>Take the gloves off! logo-zentriert-mittel weiss</title><rect x="177.450" y="0.000" width="38.700" height="361.200" fill="#ffffff"/><path transform="translate(85.000 -34.400) scale(4.30000)" d="M45.50 8.00 L45.50 33.20 L45.51 34.06 L45.55 34.92 L45.62 35.77 L45.71 36.61 L45.82 37.45 L45.95 38.28 L46.10 39.10 L46.27 39.92 L46.46 40.73 L46.66 41.54 L46.88 42.34 L47.11 43.14 L47.35 43.92 L47.61 44.71 L47.87 45.49 L48.15 46.26 L48.44 47.03 L48.73 47.79 L49.03 48.55 L49.33 49.31 L49.65 50.06 L49.96 50.80 L50.28 51.55 L50.60 52.28 L50.92 53.02 L51.25 53.75 L51.57 54.47 L51.89 55.19 L52.21 55.91 L52.53 56.63 L52.84 57.34 L53.15 58.04 L53.46 58.75 L53.76 59.44 L54.05 60.14 L54.34 60.83 L54.62 61.51 L54.88 62.19 L55.14 62.87 L55.39 63.54 L55.63 64.21 L55.86 64.87 L56.07 65.52 L56.27 66.18 L56.46 66.82 L56.64 67.46 L56.79 68.09 L56.94 68.72 L57.07 69.34 L57.18 69.96 L57.28 70.57 L57.36 71.17 L57.42 71.77 L57.46 72.36 L57.49 72.94 L57.50 73.52 L57.50 92.00 L66.50 92.00 L66.50 73.52 L66.49 72.66 L66.45 71.80 L66.38 70.95 L66.29 70.11 L66.18 69.27 L66.05 68.44 L65.90 67.62 L65.73 66.80 L65.54 65.99 L65.34 65.18 L65.12 64.38 L64.89 63.58 L64.65 62.80 L64.39 62.01 L64.13 61.23 L63.85 60.46 L63.56 59.69 L63.27 58.93 L62.97 58.17 L62.67 57.41 L62.35 56.66 L62.04 55.92 L61.72 55.17 L61.40 54.44 L61.08 53.70 L60.75 52.97 L60.43 52.25 L60.11 51.53 L59.79 50.81 L59.47 50.09 L59.16 49.38 L58.85 48.68 L58.54 47.97 L58.24 47.28 L57.95 46.58 L57.66 45.89 L57.38 45.21 L57.12 44.53 L56.86 43.85 L56.61 43.18 L56.37 42.51 L56.14 41.85 L55.93 41.20 L55.73 40.54 L55.54 39.90 L55.36 39.26 L55.21 38.63 L55.06 38.00 L54.93 37.38 L54.82 36.76 L54.72 36.15 L54.64 35.55 L54.58 34.95 L54.54 34.36 L54.51 33.78 L54.50 33.20 L54.50 8.00 Z" fill="#ffffff"/><rect x="383.850" y="0.000" width="38.700" height="361.200" fill="#ffffff"/><g transform="translate(0 425.2)"><path d="M27.12611843220756 99.95143273433705V21.759625353125344H2.5974421086619355V-0.24589093174965626H77.64329921568176V21.759625353125344H53.306836086665044V99.95143273433705Z M70.8494798340457 99.95143273433705 97.52506051843986 -0.24589093174965626H131.53318107099196L158.24202132086086 99.95143273433705H130.5727910219668L126.9680834470761 83.63148526059243H101.17511101693074L97.66242750180815 99.95143273433705ZM105.4104943568409 63.0509422119524H122.83288924192676L118.22576486352233 40.67803009324074Q117.91902985487128 39.29320630835003 117.49597529637808 37.10272939909191Q117.07292073788489 34.912252489833804 116.597727601131 32.301089268914104Q116.12253446437711 29.689926047994405 115.62233576646067 27.093348598931804Q115.12213706854422 24.496771149869204 114.71112490337181 22.41568824166866H113.55326516411732Q113.12999990219166 25.049818497134837 112.51602503296935 28.36819557005365Q111.90205016374705 31.686572642972465 111.27348952266765 34.938303326564586Q110.64492888158824 38.19003401015671 110.0386252039668 40.67803009324074Z M166.5989556840579 99.95143273433705V-0.24589093174965626H192.7796733385154V42.4754584686683L217.5835981769664 -0.24589093174965626H246.82529300321013L221.25388074697022 42.26277807836916L247.59581492559724 99.95143273433705H218.04667359535532L203.41513545377677 63.71332068880996L192.7796733385154 75.68224907326663V99.95143273433705Z M256.3298347535905 99.95143273433705V-0.24589093174965626H323.1681862665995V21.27069474250844H282.51055240804794V38.44881287589125H317.1422726787255V59.69643253559854H282.51055240804794V78.43484706007895H323.9707911605104V99.95143273433705Z  M376.0819222204543 99.95143273433705V21.759625353125344H351.5532458969087V-0.24589093174965626H426.5991030039286V21.759625353125344H402.2626398749118V99.95143273433705Z M437.3128944893032 99.95143273433705V-0.24589093174965626H463.4936121437607V38.15576207469885H485.57899786523967V-0.24589093174965626H511.7387090509757V99.95143273433705H485.57899786523967V60.09026076852724H463.4936121437607V99.95143273433705Z M527.7722825437799 99.95143273433705V-0.24589093174965626H594.6106340567889V21.27069474250844H553.9530001982373V38.44881287589125H588.5847204689148V59.69643253559854H553.9530001982373V78.43484706007895H595.4132389506998V99.95143273433705Z" fill="#ffffff"/><path d="M53.09253852057686 233.65441024223082Q30.224039716728896 233.65441024223082 18.318261997327664 218.31517808598113Q6.412484277926431 202.97594592973147 6.412484277926431 171.61923526130232Q6.412484277926431 150.47432229712916 12.265589986558364 136.76165349889536Q18.118695695190297 123.04898470066153 29.48341475638911 116.30395279592379Q40.84813381758792 109.55892089118605 57.34087678797887 109.55892089118605Q68.00460723970076 109.55892089118605 76.59561471930772 112.35893108656313Q85.18662219891469 115.15894128194023 91.331945114169 120.77143150482458Q97.47726802942331 126.38392172770892 100.75411789294628 134.85881873570517Q104.03096775646925 143.33371574370142 104.03096775646925 154.67301381364618H73.83190062946097Q73.83190062946097 150.40865598989433 72.84555842072007 146.8535961775614Q71.85921621197915 143.29853636522847 69.79390047068375 140.6870929102815Q67.72858472938837 138.07564945533454 64.64199459126647 136.6423928620477Q61.555404453144554 135.20913626876086 57.269918637994905 135.20913626876086Q52.10115162309815 135.20913626876086 48.44498406728663 136.9364586129297Q44.78881651147512 138.66378095709857 42.55696252417128 142.12097166797116Q40.32510853686745 145.57816237884376 39.340508446656 150.7189426537762Q38.355908356444566 155.85972292870866 38.355908356444566 162.76135291625735V180.54206021861694Q38.355908356444566 189.80844048668726 40.202366926406086 195.90470277205782Q42.04882549636761 202.0009650574284 46.22395109278073 205.00257996104222Q50.39907668919385 208.004194864656 57.26393254403977 208.004194864656Q62.9598278321696 208.004194864656 66.70283388862843 205.58212861741103Q70.44583994508726 203.16006237016606 72.36331725702561 198.892654207265Q74.28079456896396 194.62524604436393 74.28079456896396 189.23096461172076V188.07769942899617H54.700120387123064V165.3421245121466H103.98068897809375V231.56199524659002H87.3925950076129L85.06449455786708 219.90248670316808Q81.71593177391325 224.04461869150722 77.21522042516428 227.13281667401594Q72.7145090764153 230.22101465652466 66.79331711716722 231.93771244937773Q60.87212515791916 233.65441024223082 53.09253852057686 233.65441024223082Z M121.60839857801523 231.56199524659002V111.65133588682686H152.94004498924915V205.2123369165856H197.57600144500202V231.56199524659002Z M251.1554002242184 233.65441024223082Q234.73637587315326 233.65441024223082 223.55126250590462 227.10449763945616Q212.36614913865597 220.5545850366815 206.62795867001165 206.8097969530837Q200.88976820136736 193.0650088694859 200.88976820136736 171.61923526130232Q200.88976820136736 150.1092230823907 206.62795867001165 136.39655428415693Q212.36614913865597 122.68388548592313 223.55126250590462 116.12140318855458Q234.73637587315326 109.55892089118605 251.1554002242184 109.55892089118605Q267.66380253519924 109.55892089118605 278.8840789636946 116.12140318855458Q290.10435539219 122.68388548592313 295.78748118804657 136.39655428415693Q301.47060698390317 150.1092230823907 301.47060698390317 171.61923526130232Q301.47060698390317 193.0650088694859 295.78748118804657 206.8097969530837Q290.10435539219 220.5545850366815 278.8840789636946 227.10449763945616Q267.66380253519924 233.65441024223082 251.1554002242184 233.65441024223082ZM251.1554002242184 208.004194864656Q256.2415808725066 208.004194864656 259.7319142238514 206.10983652113086Q263.22224757519615 204.21547817760572 265.39719490871914 200.66072781575156Q267.5721422422421 197.10597745389742 268.55699449076064 192.0028064002829Q269.54184673927926 186.8996353466684 269.54184673927926 180.50644527413567V162.7110741378819Q269.54184673927926 156.30322023145493 268.55699449076064 151.23521223908713Q267.5721422422421 146.16720424671934 265.39719490871914 142.58252860126524Q263.22224757519615 138.99785295581114 259.7319142238514 137.103494612286Q256.2415808725066 135.20913626876086 251.1554002242184 135.20913626876086Q246.09435896511792 135.20913626876086 242.59145591917928 137.103494612286Q239.08855287324062 138.99785295581114 236.93839290813455 142.58252860126524Q234.78823294302848 146.16720424671934 233.810712611457 151.23521223908713Q232.8331922798855 156.30322023145493 232.8331922798855 162.7110741378819V180.50644527413567Q232.8331922798855 186.8996353466684 233.810712611457 192.0028064002829Q234.78823294302848 197.10597745389742 236.93839290813455 200.66072781575156Q239.08855287324062 204.21547817760572 242.59145591917928 206.10983652113086Q246.09435896511792 208.004194864656 251.1554002242184 208.004194864656Z M336.4820295140965 231.56199524659002 307.2816352586488 111.65133588682686H340.4938014050411L352.5674143145161 173.77215315982463Q353.09490606695437 176.62100946552653 353.7836917244879 180.9173686177259Q354.47247738202134 185.21372776992533 355.2481948393994 189.61945979277868Q356.0239122967774 194.025191815632 356.5257603434136 197.49040039054066H357.9114233501703Q358.4479825748187 194.49095657182224 359.1113766848573 190.35581601084561Q359.77477079489586 186.22067544986902 360.513483210034 181.80630328944886Q361.2521956251721 177.39193112902868 361.8551055451736 173.78681699371884L373.96362935758816 111.65133588682686H406.0916971827759L376.9408776641619 231.56199524659002Z M417.13637300647645 231.56199524659002V111.65133588682686H497.1248448258809V137.40120505468354H448.46801941771037V157.9590343116642H489.9133620723601V183.38701971087215H448.46801941771037V205.81212607873334H498.08535832577195V231.56199524659002Z M553.5282944115536 233.65441024223082Q544.2922471810551 233.65441024223082 536.2738248879948 231.95941347161983Q528.2554025949346 230.26441670100883 522.1603011658842 226.03619938712262Q516.0651997368337 221.80798207323642 512.6048506293591 214.38538667809252Q509.1445015218846 206.96279128294861 509.1445015218846 195.4721788143289Q509.1445015218846 194.98936947858203 509.15183343883166 193.96475327745233Q509.1591653557788 192.94013707632263 509.2937300490002 192.25732924500323H539.179676287883Q539.1301015510492 193.03560258800383 539.122769634102 193.88290695941112Q539.115437717155 194.73021133081838 539.115437717155 195.48823760477362Q539.115437717155 200.67470066188503 540.7141617722582 203.50814162669107Q542.3128858273612 206.34158259149712 545.224798598701 207.43139026338247Q548.1367113700408 208.5211979352678 551.9954332706714 208.5211979352678Q554.0713965529031 208.5211979352678 555.8537754112466 208.17978745634161Q557.6361542695901 207.83837697741546 559.1184731244832 207.06338644207182Q560.6007919793765 206.2883959067282 561.6731736435511 205.08750925268504Q562.7455553077258 203.88662259864188 563.2840629390976 202.19245761682478Q563.8225705704692 200.4982926350077 563.8225705704692 198.34102676732377Q563.8225705704692 194.6551435159274 561.5894181892575 192.23612104456515Q559.3562658080456 189.8170985732029 555.591368831129 188.04058951999673Q551.8264718542124 186.26408046679057 547.1142286878102 184.6791491863169Q542.4019855214079 183.0942179058432 537.333926763759 181.2379632371626Q532.26586800611 179.381708568482 527.5536248397078 176.71636292879006Q522.8413816733056 174.05101728909813 519.076484696389 170.06814076337886Q515.3115877194724 166.0852642376596 513.0784353382605 160.34769266997287Q510.8452829570487 154.61012110228614 510.8452829570487 146.59649286225124Q510.8452829570487 136.51149900427967 514.207180069131 129.44422144703466Q517.5690771812133 122.37694388978966 523.4787948150268 117.98538110179997Q529.3885124488404 113.59381831381029 536.9023949401526 111.53387462430433Q544.4162774314647 109.47393093479839 552.7202481899244 109.47393093479839Q561.1156959063921 109.47393093479839 568.4305229754477 111.36354269075815Q575.7453500445032 113.2531544467179 581.2681250085805 117.32420713746333Q586.7908999726578 121.39525982820878 589.9327905518965 127.9777894696953Q593.0746811311351 134.5603191111818 593.1242558679688 143.94615488223528V147.70965363915616H563.5870454616929V145.94260664922302Q563.5870454616929 142.42599926906024 562.5933647727384 139.84678482502864Q561.5996840837839 137.26757038099706 559.3690253281031 135.82404782043176Q557.1383665724225 134.3805252598665 553.2374509854636 134.3805252598665Q549.7376490075793 134.3805252598665 547.3399542525423 135.42868116441022Q544.9422594975052 136.47683706895396 543.8009925375009 138.41424869963768Q542.6597255774966 140.3516603303214 542.6597255774966 143.07255033807212Q542.6597255774966 146.89489755585475 544.8928779587084 149.5041470090377Q547.1260303399202 152.11339646222063 550.9334222950307 153.91773665972642Q554.7408142501412 155.72207685723222 559.4530574165433 157.29967622075878Q564.1653005829455 158.87727558428537 569.1908643624006 160.67871773848543Q574.2164281418558 162.4801598926855 578.928671308258 165.04610390040273Q583.6409144746602 167.61204790811993 587.4483064297706 171.46769165756484Q591.255698384881 175.32333540700978 593.4888507660929 180.85721795387116Q595.7220031473048 186.39110050073253 595.7220031473048 194.205925476818Q595.7220031473048 207.7834548465115 590.4433180429463 216.51859550834308Q585.1646329385878 225.2537361701747 575.7076212709221 229.45407320620276Q566.2506096032565 233.65441024223082 553.5282944115536 233.65441024223082Z" fill="#ffffff"/><path d="M100.58385298483454 462.3545448264059Q71.38538749096642 462.3545448264059 51.49454990429663 450.7066300032842Q31.603712317626847 439.0587151801625 21.399308400954126 414.6159278379642Q11.194904484281404 390.1731404957659 11.194904484281404 352.0354492847023Q11.194904484281404 313.78352061039647 21.399308400954126 289.39785199981924Q31.603712317626847 265.012183389242 51.49454990429663 253.34191548435246Q71.38538749096642 241.67164757946287 100.58385298483454 241.67164757946287Q129.9412621054805 241.67164757946287 149.89463126580037 253.34191548435246Q169.84800042612025 265.012183389242 179.95448110972228 289.39785199981924Q190.06096179332428 313.78352061039647 190.06096179332428 352.0354492847023Q190.06096179332428 390.1731404957659 179.95448110972228 414.6159278379642Q169.84800042612025 439.0587151801625 149.89463126580037 450.7066300032842Q129.9412621054805 462.3545448264059 100.58385298483454 462.3545448264059ZM100.58385298483454 416.73996307058934Q109.62876740723073 416.73996307058934 115.83573657557395 413.3711662685521Q122.04270574391715 410.0023694665148 125.91048273912764 403.6808455098748Q129.77825973433812 397.35932155323485 131.5296533482384 388.2841925606523Q133.28104696213867 379.20906356806967 133.28104696213867 367.83985333137997V336.19378722156415Q133.28104696213867 324.7984998295689 131.5296533482384 315.7859024106365Q129.77825973433812 306.773304991704 125.91048273912764 300.398563965529Q122.04270574391715 294.02382293935403 115.83573657557395 290.6550261373168Q109.62876740723073 287.2862293352795 100.58385298483454 287.2862293352795Q91.58364472597405 287.2862293352795 85.35432247586299 290.6550261373168Q79.12500022575192 294.02382293935403 75.30130338450974 300.398563965529Q71.47760654326757 306.773304991704 69.73925150702004 315.7859024106365Q68.00089647077253 324.7984998295689 68.00089647077253 336.19378722156415V367.83985333137997Q68.00089647077253 379.20906356806967 69.73925150702004 388.2841925606523Q71.47760654326757 397.35932155323485 75.30130338450974 403.6808455098748Q79.12500022575192 410.0023694665148 85.35432247586299 413.3711662685521Q91.58364472597405 416.73996307058934 100.58385298483454 416.73996307058934Z M218.12052936854005 458.6335376738033V245.39265473206552H348.34617083565615V291.1844539457934H273.83857795923745V335.1708853705542H336.34750448115255V380.73725536100847H273.83857795923745V458.6335376738033Z M370.99190655463167 458.6335376738033V245.39265473206552H501.2175480217478V291.1844539457934H426.7099551453291V335.1708853705542H489.2188816672442V380.73725536100847H426.7099551453291V458.6335376738033Z" fill="#ffffff"/><path d="M527.14 245.92 L527.14 283.53 L527.17 285.51 L527.25 287.47 L527.37 289.39 L527.54 291.28 L527.75 293.15 L527.99 294.98 L528.27 296.78 L528.59 298.55 L528.92 300.29 L529.29 302.00 L529.68 303.68 L530.09 305.33 L530.51 306.95 L530.96 308.55 L531.41 310.11 L531.88 311.65 L532.36 313.17 L532.84 314.65 L533.33 316.12 L533.83 317.56 L534.33 318.97 L534.83 320.37 L535.32 321.73 L535.82 323.08 L536.32 324.41 L536.81 325.71 L537.29 326.99 L537.77 328.25 L538.24 329.48 L538.70 330.70 L539.14 331.89 L539.58 333.06 L540.01 334.21 L540.42 335.33 L540.81 336.44 L541.19 337.52 L541.55 338.57 L541.90 339.60 L542.23 340.61 L542.54 341.59 L542.83 342.55 L543.10 343.47 L543.35 344.38 L543.58 345.25 L543.79 346.09 L543.98 346.91 L544.14 347.69 L544.29 348.45 L544.42 349.17 L544.53 349.87 L544.62 350.53 L544.69 351.16 L544.74 351.76 L544.78 352.33 L544.80 352.88 L544.81 353.39 L544.81 380.26 L600.00 380.26 L600.00 353.39 L599.97 351.41 L599.90 349.45 L599.77 347.53 L599.60 345.64 L599.40 343.77 L599.15 341.94 L598.87 340.14 L598.56 338.37 L598.22 336.63 L597.85 334.92 L597.46 333.24 L597.06 331.59 L596.63 329.97 L596.19 328.37 L595.73 326.81 L595.26 325.27 L594.79 323.75 L594.30 322.27 L593.81 320.80 L593.32 319.36 L592.82 317.95 L592.32 316.55 L591.82 315.19 L591.32 313.84 L590.83 312.51 L590.34 311.21 L589.85 309.93 L589.38 308.67 L588.91 307.44 L588.45 306.22 L588.00 305.03 L587.56 303.86 L587.14 302.71 L586.73 301.59 L586.33 300.48 L585.95 299.40 L585.59 298.35 L585.24 297.32 L584.91 296.31 L584.60 295.33 L584.31 294.37 L584.04 293.45 L583.79 292.54 L583.56 291.67 L583.36 290.83 L583.17 290.01 L583.00 289.23 L582.85 288.47 L582.72 287.75 L582.62 287.05 L582.53 286.39 L582.46 285.76 L582.40 285.16 L582.37 284.59 L582.34 284.04 L582.34 283.53 L582.34 245.92 Z" fill="#ffffff"/><rect x="544.81" y="403.44" width="55.19" height="55.19" fill="#ffffff"/><path d="M8.46638888307082 540.3381239933917 0.3982557581406389 509.6663271009375H7.458196099684427L11.922549604836906 527.9434110015324Q12.046883508922585 528.370809819534 12.180931766295238 529.1430436342541Q12.314980023667893 529.9152774489743 12.458742634327521 530.7691069223113Q12.602505244987151 531.6229363956483 12.70158510318923 532.3028920357984H12.915284512190011Q13.004650017105114 531.7958420661688 13.081388499078415 531.1848550616935Q13.158126981051717 530.5738680572182 13.269833862195597 529.9580238760994Q13.381540743339475 529.3421796949807 13.475763424898066 528.8137565117884Q13.569986106456655 528.2853333285962 13.624383212201183 527.9434110015324L17.799275170702074 509.6663271009375H25.75672684874888L29.97047622039767 527.9434110015324Q30.094810124483352 528.3902385261079 30.233715558499494 529.1673295174714Q30.372620992515635 529.9444205088352 30.516383603175264 530.7885356288851Q30.660146213834892 531.6326507489351 30.75922607203697 532.3028920357984H30.972925481037752Q31.062290985952856 531.8210961120524 31.173997867096734 531.2275933071624Q31.28570474824061 530.6340905022724 31.392554452741003 530.035730520739Q31.499404157241393 529.4373705392055 31.628595237970558 528.8963203330713Q31.757786318699726 528.3552701269373 31.84715182361483 527.9434110015324L36.27264791561941 509.6663271009375H42.675950337564224L34.572848813463466 540.3381239933917H27.001969488312664L22.459901156864383 521.4743226082264Q22.335567252778706 520.8584784271077 22.174320442533787 520.04156185993Q22.01307363228887 519.2246452927523 21.886795221214527 518.402871548931Q21.76051681014019 517.5810978051097 21.66143695193811 516.965253623991H21.482705942107906Q21.418594483076404 517.6063518509934 21.29717324864555 518.4582368173417Q21.175752014214698 519.31012178369 21.031989403555066 520.1095541512824Q20.888226792895438 520.9089865188748 20.754178535522787 521.4743226082264L16.247078603245082 540.3381239933917Z M48.68477147215706 540.3381239933917V509.6663271009375H55.37753544075346V521.8608131445591H68.92801102407283V509.6663271009375H75.62077499266923V540.3381239933917H68.92801102407283V527.4870000301712H55.37753544075346V540.3381239933917Z M84.63884750788931 540.3381239933917V509.6663271009375H109.1269812698978V515.1506877012224H91.3316114764857V521.9832107233124H107.06379662889579V527.3995708505885H91.3316114764857V534.8537633931069H109.40479213793007V540.3381239933917Z M117.36216199941354 540.3381239933917V509.6663271009375H134.17264036667785Q137.57824390673872 509.6663271009375 139.82695305954675 510.8766504312687Q142.07566221235479 512.0869737615999 143.20244537708055 514.2511745861364Q144.32922854180632 516.4153754106728 144.32922854180632 519.2517538474048Q144.32922854180632 522.2357839087738 142.9790316147928 524.5369456603377Q141.62883468777926 526.8381074119015 139.08580681167615 528.0484307422328L145.36275718763963 540.3381239933917H137.988084890248L132.562059499623 529.1771665956035H124.05492596800995V540.3381239933917ZM124.05492596800995 523.8793150331035H133.28866694418846Q135.28966008817864 523.8793150331035 136.40866522494974 522.6660872147738Q137.52767036172085 521.4528593964441 137.52767036172085 519.3391830269876Q137.52767036172085 517.981224435332 137.03033474537813 517.0390058014025Q136.53299912903543 516.0967871674729 135.5927250020945 515.5848800211998Q134.6524508751536 515.0729728749266 133.28866694418846 515.0729728749266H124.05492596800995Z M152.24385197616454 540.3381239933917V509.6663271009375H176.73198573817302V515.1506877012224H158.93661594476094V521.9832107233124H174.668801097171V527.3995708505885H158.93661594476094V534.8537633931069H177.00979660620533V540.3381239933917Z  M205.19099367634325 540.8743170228823Q201.66881789683868 540.8743170228823 199.17628993084645 539.8174706564978Q196.6837619648542 538.7606242901131 195.37435877632092 536.6653839195953Q194.06495558778764 534.5701435490776 194.06495558778764 531.3723977153952V529.9561693673305H200.5867502111958V531.3626833621082Q200.5867502111958 533.402550282559 201.72323954755223 534.4137375521635Q202.85972888390862 535.4249248217681 205.12299320333443 535.4249248217681Q207.3163207244191 535.4249248217681 208.43532586119022 533.9766325625312Q209.55433099796133 532.5283403032945 209.55433099796133 529.7891053994323V509.6663271009375H216.2820633657283V529.7988197527193Q216.2820633657283 533.5210915739603 214.97266017719502 535.9835001357692Q213.66325698866174 538.4459086975779 211.18821322225477 539.6601128602301Q208.71316945584783 540.8743170228823 205.19099367634325 540.8743170228823Z M238.43497786807416 540.8743170228823Q234.23867178772898 540.8743170228823 231.22257781518795 539.5445169651089Q228.2064838426469 538.2147169073355 226.60178558649602 535.5075213696764Q224.99708733034515 532.8003258320172 224.99708733034515 528.7652747435733V509.6663271009375H231.68985129894156V528.59625808703Q231.68985129894156 531.8930510522891 233.43247046312973 533.6589879370285Q235.1750896273179 535.4249248217681 238.4252635147872 535.4249248217681Q241.67543740225645 535.4249248217681 243.45788214225868 533.6589879370285Q245.24032688226092 531.8930510522891 245.24032688226092 528.59625808703V509.6663271009375H251.93309085085733V528.7652747435733Q251.93309085085733 532.8003258320172 250.31576557176467 535.5075213696764Q248.69844029267202 538.2147169073355 245.68234632013096 539.5445169651089Q242.6662523475899 540.8743170228823 238.43497786807416 540.8743170228823Z M272.74744274149634 540.8743170228823Q270.06452490539823 540.8743170228823 267.64873542137934 540.3352113237369Q265.2329459373604 539.7961056245914 263.382492542693 538.6217270377533Q261.5320391480256 537.4473484509152 260.4703356049975 535.6240936091201Q259.4086320619694 533.8008387673249 259.4086320619694 531.2422548353126Q259.4086320619694 531.0130157337151 259.4261162615547 530.7692051021872Q259.44360046113997 530.5253944706594 259.45331481442696 530.3816318599997H266.0644749427502Q266.0547605894633 530.4904260714887 266.037276389878 530.7167525034313Q266.01979219029266 530.9430789353739 266.01979219029266 531.1120955919172Q266.01979219029266 532.5574833631555 266.8201927205513 533.5346703962556Q267.62059325080986 534.5118574293557 269.1271716297685 535.0023913620663Q270.63375000872713 535.4929252947769 272.65806087326854 535.4929252947769Q273.9285902853413 535.4929252947769 274.95142823356514 535.3481945214511Q275.974266181789 535.2034637481253 276.74261098253186 534.9169148711285Q277.5109557832747 534.6303659941318 278.03257728283484 534.2146260364059Q278.554198782395 533.79888607868 278.80481109755505 533.2617248865231Q279.0554234127151 532.7245636943663 279.0554234127151 532.073751114077Q279.0554234127151 530.8750948256778 278.2608482217661 530.1038373552801Q277.46627303081715 529.3325798848824 276.1180206107923 528.8002758693692Q274.7697681907674 528.2679718538559 273.07376810436915 527.832803189556Q271.3777680179709 527.3976345252561 269.5826880733705 526.9206957781535Q267.7876081287701 526.443757031051 266.09160804237183 525.7560315446024Q264.39560795597356 525.0683060581538 263.04735553594867 524.0707139741571Q261.69910311592383 523.0731218901606 260.9045279249749 521.5568209762587Q260.1099527340259 520.0405200623568 260.1099527340259 517.9112876369909Q260.1099527340259 515.6499432795847 261.0696637491971 513.983078071391Q262.0293747643683 512.3162128631974 263.7632641012483 511.24188229722745Q265.49715343812835 510.16755173125756 267.7847200040843 509.6488429013522Q270.0722865700402 509.1301340714469 272.7279976716097 509.1301340714469Q275.25354952978387 509.1301340714469 277.4789491436969 509.6537000779957Q279.70434875761003 510.17726608454456 281.4061823649743 511.286565049685Q283.1080159723386 512.3958640148255 284.0754968338081 514.0957531152011Q285.0429776952776 515.7956422155767 285.05269204856455 518.1482884032303V518.6844814327209H278.5308974251564V518.2959400278672Q278.5308974251564 517.106998092755 277.83152126008855 516.2522004567519Q277.1321450950207 515.3974028207488 275.8412106320515 514.9156068970026Q274.55027616908234 514.4338109732565 272.77074409873495 514.4338109732565Q270.90573553744974 514.4338109732565 269.58760252160835 514.7893284859283Q268.2694695057669 515.1448459986001 267.5778631869973 515.8238252944278Q266.8862568682278 516.5028045902556 266.8862568682278 517.4586184097931Q266.8862568682278 518.51740110151 267.68083205917674 519.2284361268535Q268.47540725012567 519.939471152197 269.8236596701505 520.4368067685398Q271.1719120901754 520.9341423848824 272.86791217657367 521.351826849597Q274.56391226297194 521.7695113143117 276.3589922075723 522.2542199077126Q278.1540721521727 522.7389285011135 279.850072238571 523.3994554346898Q281.54607232496926 524.0599823682661 282.89432474499415 525.0653442985611Q284.242577165019 526.0707062288559 285.0371523559679 527.5452370599551Q285.8317275469169 529.0197678910542 285.8317275469169 531.0946032106756Q285.8317275469169 534.6128899762028 284.1366956231848 536.7712654614296Q282.44166369945265 538.9296409466564 279.4858003536221 539.9019789847694Q276.52993700779155 540.8743170228823 272.74744274149634 540.8743170228823Z M300.9422268155859 540.3381239933917V515.2925139865497H291.0887035543733V509.6663271009375H317.5137680912785V515.2925139865497H307.6349907841823V540.3381239933917Z M324.2433058778765 540.3381239933917V509.6663271009375H330.9360698464729V540.3381239933917Z M353.67371641811883 540.8743170228823Q348.86545517063223 540.8743170228823 345.4880183461098 539.1919121220919Q342.11058152158733 537.5095072213016 340.3358984462271 533.992196800097Q338.5612153708668 530.4748863788922 338.5612153708668 525.0022255471646Q338.5612153708668 516.9632191187827 342.51758347034877 513.0466765951148Q346.4739515698308 509.1301340714469 353.67371641811883 509.1301340714469Q357.61746567631536 509.1301340714469 360.73652033937947 510.4696484825073Q363.8555750024436 511.80916289356765 365.6700836536179 514.4959615619867Q367.4845923047922 517.1827602304058 367.4845923047922 521.2624940713073H360.78406667155383Q360.78406667155383 519.1254999812994 359.8962451433688 517.6373739645923Q359.00842361518374 516.1492479478851 357.422194084597 515.3643871102231Q355.8359645540103 514.5795262725612 353.733938863173 514.5795262725612Q350.899513115086 514.5795262725612 349.0490760837313 515.700475916321Q347.19863905237656 516.8214255600807 346.3205318774785 518.9894990352818Q345.4424247025804 521.1575725104829 345.4424247025804 524.3067138511051V525.6977372432242Q345.4424247025804 528.881846983017 346.32538905412196 531.049920458218Q347.20835340566356 533.217993933419 349.0364490607895 534.3214593775936Q350.86454471591543 535.4249248217681 353.7145101565991 535.4249248217681Q355.96029845809596 535.4249248217681 357.6009250944272 534.6672625369783Q359.2415517307585 533.9096002521886 360.134230435587 532.4263314121249Q361.02690914041557 530.9430625720613 361.02690914041557 528.8157828353404H367.4845923047922Q367.4845923047922 532.876087969668 365.70699655977717 535.5531722848001Q363.92940081476206 538.2302565999322 360.81520332834145 539.5522868114073Q357.7010058419208 540.8743170228823 353.67371641811883 540.8743170228823Z M374.94269022460065 540.3381239933917V509.6663271009375H399.43082398660914V515.1506877012224H381.63545419319706V521.9832107233124H397.36763934560713V527.3995708505885H381.63545419319706V534.8537633931069H399.7086348546414V540.3381239933917Z  M418.65796182068254 540.3381239933917V509.6663271009375H436.18531691591267Q438.613725241217 509.6663271009375 440.55256779647704 510.60952207918956Q442.49141035173704 511.55271705744167 443.61819351646284 513.2506616508285Q444.7449766811886 514.9486062442155 444.7449766811886 517.2177122662637Q444.7449766811886 519.0671974982649 444.06502104103834 520.4970455769067Q443.3850654008881 521.9268936555483 442.2407980365771 522.8584297735247Q441.096530672266 523.7899658915011 439.6763969469113 524.2620474619602V524.4407784717904Q441.3549128337243 524.7982404914508 442.69053823080736 525.7744593618847Q444.0261636278904 526.7506782323188 444.7954847729558 528.2970903687478Q445.56480591802114 529.8435025051768 445.56480591802114 531.9513698986364Q445.56480591802114 534.7236368763369 444.30591900291137 536.590598126267Q443.0470320878016 538.4575593761972 440.94888722928533 539.3978416847945Q438.8507423707691 540.3381239933917 436.2436030356345 540.3381239933917ZM425.35072578927895 534.9023351595417H434.9205637532116Q436.5776982448056 534.9023351595417 437.64036176884355 533.9601165256122Q438.7030252928815 533.0178978916827 438.7030252928815 531.0285554263118Q438.7030252928815 529.903724950231 438.2552296056398 529.0479591515617Q437.80743391839815 528.1921933528924 436.90892987425997 527.722056289422Q436.0104258301218 527.2519192259515 434.64081655984694 527.2519192259515H425.35072578927895ZM425.35072578927895 522.0609255496082H434.17067131472015Q435.37515294242905 522.0609255496082 436.1988630115826 521.6034155090796Q437.02257308073615 521.145905468551 437.4528845683925 520.3455049382924Q437.8831960560489 519.5451044080337 437.8831960560489 518.536829808084Q437.8831960560489 516.7845044722652 436.91572337623575 515.899595613735Q435.9482506964226 515.0146867552047 434.41545010891423 515.0146867552047H425.35072578927895Z M453.18218977777315 540.3381239933917V509.6663271009375H477.67032353978163V515.1506877012224H459.87495374636956V521.9832107233124H475.6071388987796V527.3995708505885H459.87495374636956V534.8537633931069H477.9481344078139V540.3381239933917Z M485.90550426929735 540.3381239933917V509.6663271009375H492.0678841844001L504.39249674479163 526.2279740269038Q504.6547679202273 526.534927954797 505.04526201372596 527.0866688585406Q505.4357561072246 527.6384097622841 505.79613897819615 528.1775236430859Q506.15652184916775 528.7166375238877 506.3041734738047 529.0430201583548L506.5275872360925 529.0235914517809Q506.5178728828055 528.2620319713575 506.5178728828055 527.5402980667482Q506.5178728828055 526.818564162139 506.5178728828055 526.2279740269038V509.6663271009375H512.8415077898095V540.3381239933917H506.7238106271643L494.10194212885386 523.3995699778784Q493.6570509296107 522.785662122092 493.17331049887594 522.0134283073719Q492.68957006814117 521.2411944926516 492.4428385853021 520.850700399153L492.2194248230144 520.870129105727Q492.2291391763014 521.509291007397 492.2291391763014 522.1659371086523Q492.2291391763014 522.8225832099076 492.2291391763014 523.3995699778784V540.3381239933917Z M521.8304372451687 540.3381239933917V509.6663271009375H534.3416242965957Q539.1246314981987 509.6663271009375 542.4894412997794 511.31958894186687Q545.85425110136 512.9728507827963 547.6561327295925 516.3512557699848Q549.458014357825 519.7296607571735 549.458014357825 525.0022255471646Q549.458014357825 530.2301075846981 547.6561327295925 533.6308539481155Q545.85425110136 537.0316003115329 542.4894412997794 538.6848621524623Q539.1246314981987 540.3381239933917 534.3416242965957 540.3381239933917ZM528.5232012137651 534.8537633931069H534.3027668834478Q536.3309667619666 534.8537633931069 537.8822278933828 534.267062271849Q539.433489024799 533.6803611505912 540.4728430099419 532.5341574609479Q541.5121969950849 531.3879537713045 542.0445010105982 529.6647633136903Q542.5768050261115 527.941572856076 542.5768050261115 525.6783085366502V524.3611109568496Q542.5768050261115 522.0628782382532 542.0445010105982 520.339687780639Q541.5121969950849 518.6164973230248 540.4728430099419 517.4702936333814Q539.433489024799 516.324089943738 537.8822278933828 515.7373888224802Q536.3309667619666 515.1506877012224 534.3027668834478 515.1506877012224H528.5232012137651Z M569.0387742875196 540.8743170228823Q566.3558564514215 540.8743170228823 563.9400669674026 540.3352113237369Q561.5242774833836 539.7961056245914 559.6738240887162 538.6217270377533Q557.8233706940488 537.4473484509152 556.7616671510207 535.6240936091201Q555.6999636079927 533.8008387673249 555.6999636079927 531.2422548353126Q555.6999636079927 531.0130157337151 555.717447807578 530.7692051021872Q555.7349320071633 530.5253944706594 555.7446463604501 530.3816318599997H562.3558064887735Q562.3460921354865 530.4904260714887 562.3286079359012 530.7167525034313Q562.311123736316 530.9430789353739 562.311123736316 531.1120955919172Q562.311123736316 532.5574833631555 563.1115242665745 533.5346703962556Q563.9119247968331 534.5118574293557 565.4185031757918 535.0023913620663Q566.9250815547504 535.4929252947769 568.9493924192918 535.4929252947769Q570.2199218313644 535.4929252947769 571.2427597795884 535.3481945214511Q572.2655977278122 535.2034637481253 573.033942528555 534.9169148711285Q573.8022873292979 534.6303659941318 574.3239088288581 534.2146260364059Q574.8455303284182 533.79888607868 575.0961426435783 533.2617248865231Q575.3467549587383 532.7245636943663 575.3467549587383 532.073751114077Q575.3467549587383 530.8750948256778 574.5521797677893 530.1038373552801Q573.7576045768403 529.3325798848824 572.4093521568154 528.8002758693692Q571.0610997367907 528.2679718538559 569.3650996503924 527.832803189556Q567.6690995639941 527.3976345252561 565.8740196193937 526.9206957781535Q564.0789396747933 526.443757031051 562.3829395883951 525.7560315446024Q560.6869395019968 525.0683060581538 559.3386870819719 524.0707139741571Q557.990434661947 523.0731218901606 557.1958594709981 521.5568209762587Q556.4012842800491 520.0405200623568 556.4012842800491 517.9112876369909Q556.4012842800491 515.6499432795847 557.3609952952204 513.983078071391Q558.3207063103915 512.3162128631974 560.0545956472715 511.24188229722745Q561.7884849841516 510.16755173125756 564.0760515501075 509.6488429013522Q566.3636181160634 509.1301340714469 569.019329217633 509.1301340714469Q571.5448810758071 509.1301340714469 573.7702806897203 509.6537000779957Q575.9956803036333 510.17726608454456 577.6975139109975 511.286565049685Q579.3993475183618 512.3958640148255 580.3668283798313 514.0957531152011Q581.3343092413008 515.7956422155767 581.3440235945878 518.1482884032303V518.6844814327209H574.8222289711796V518.2959400278672Q574.8222289711796 517.106998092755 574.1228528061117 516.2522004567519Q573.4234766410439 515.3974028207488 572.1325421780747 514.9156068970026Q570.8416077151055 514.4338109732565 569.0620756447581 514.4338109732565Q567.1970670834729 514.4338109732565 565.8789340676315 514.7893284859283Q564.5608010517901 515.1448459986001 563.8691947330205 515.8238252944278Q563.177588414251 516.5028045902556 563.177588414251 517.4586184097931Q563.177588414251 518.51740110151 563.9721636052 519.2284361268535Q564.766738796149 519.939471152197 566.1149912161738 520.4368067685398Q567.4632436361986 520.9341423848824 569.1592437225969 521.351826849597Q570.8552438089952 521.7695113143117 572.6503237535956 522.2542199077126Q574.445403698196 522.7389285011135 576.1414037845942 523.3994554346898Q577.8374038709925 524.0599823682661 579.1856562910174 525.0653442985611Q580.5339087110423 526.0707062288559 581.3284839019911 527.5452370599551Q582.1230590929401 529.0197678910542 582.1230590929401 531.0946032106756Q582.1230590929401 534.6128899762028 580.428027169208 536.7712654614296Q578.7329952454759 538.9296409466564 575.7771318996454 539.9019789847694Q572.8212685538148 540.8743170228823 569.0387742875196 540.8743170228823Z M589.6374740805127 547.9031288892949V545.2940205022026Q590.7545428919515 545.1347181989463 591.5073561817541 544.434365689556Q592.2601694715567 543.7340131801657 592.673004941284 542.6616271211844Q593.0858404110115 541.5892410622032 593.0858404110115 540.3381239933917H589.9172212738773V533.9290125954499H596.3826824662086V539.730041476915Q596.3826824662086 542.4187846523226 595.4491936595872 544.1245072736642Q594.5157048529658 545.8302298950059 592.9780225438449 546.7200041118359Q591.4403402347241 547.6097783286659 589.6374740805127 547.9031288892949Z" fill="#ffffff"/><path d="M10.951163366077411 587.8492946815061V562.803684674664H1.0976401048648345V557.1774977890519H27.52270464176999V562.803684674664H17.643927334673812V587.8492946815061Z M44.17819672429545 587.8492946815061V557.1774977890519H50.87096069289185V569.3719838326734H64.42143627621121V557.1774977890519H71.11420024480762V587.8492946815061H64.42143627621121V574.9981707182856H50.87096069289185V587.8492946815061Z M90.05822705595517 587.8492946815061V557.1774977890519H114.54636081796366V562.6618583893368H96.75099102455157V569.4943814114267H112.48317617696165V574.9107415387028H96.75099102455157V582.3649340812212H114.82417168599594V587.8492946815061Z  M153.62540724389206 587.8492946815061V557.1774977890519H171.15276233912215Q173.58117066442657 557.1774977890519 175.52001321968658 558.120692767304Q177.45885577494656 559.063887745556 178.58563893967232 560.7618323389429Q179.71242210439806 562.4597769323299 179.71242210439806 564.728882954378Q179.71242210439806 566.5783681863793 179.03246646424782 568.008216265021Q178.35251082409758 569.4380643436626 177.20824345978653 570.369600461639Q176.06397609547548 571.3011365796154 174.6438423701208 571.7732181500745V571.9519491599048Q176.32235825693382 572.3094111795651 177.65798365401687 573.2856300499991Q178.99360905109992 574.2618489204332 179.76293019616526 575.8082610568622Q180.53225134123062 577.3546731932912 180.53225134123062 579.4625405867507Q180.53225134123062 582.2348075644512 179.27336442612085 584.1017688143813Q178.0144775110111 585.9687300643116 175.91633265249487 586.9090123729088Q173.8181877939786 587.8492946815061 171.211048458844 587.8492946815061ZM160.31817121248844 582.4135058476561H169.8880091764211Q171.54514366801516 582.4135058476561 172.6078071920531 581.4712872137266Q173.670470716091 580.529068579797 173.670470716091 578.5397261144261Q173.670470716091 577.4148956383453 173.22267502884932 576.5591298396761Q172.77487934160763 575.7033640410068 171.87637529746945 575.2332269775363Q170.97787125333127 574.7630899140659 169.60826198305648 574.7630899140659H160.31817121248844ZM160.31817121248844 569.5720962377226H169.1381167379297Q170.3425983656386 569.5720962377226 171.16630843479214 569.114586197194Q171.99001850394566 568.6570761566653 172.42032999160205 567.8566756264067Q172.85064147925843 567.056275096148 172.85064147925843 566.0480004961984Q172.85064147925843 564.2956751603796 171.88316879944526 563.4107663018493Q170.9156961196321 562.5258574433191 169.3828955321237 562.5258574433191H160.31817121248844Z M212.38380099992622 588.3854877109967Q207.50560295409846 588.3854877109967 203.97177649597458 586.6506302114506Q200.4379500378507 584.9157727119043 198.55932992764488 581.3809780911142Q196.68070981743907 577.8461834703243 196.68070981743907 572.513396235279Q196.68070981743907 567.1359262477762 198.55932992764488 563.6234730032149Q200.4379500378507 560.1110197586537 203.97177649597458 558.3761622591076Q207.50560295409846 556.6413047595613 212.38380099992622 556.6413047595613Q217.3066817982115 556.6413047595613 220.8230240567501 558.3761622591076Q224.3393663152887 560.1110197586537 226.21798642549453 563.6234730032149Q228.09660653570035 567.1359262477762 228.09660653570035 572.513396235279Q228.09660653570035 577.8461834703243 226.21798642549453 581.3809780911142Q224.3393663152887 584.9157727119043 220.8230240567501 586.6506302114506Q217.3066817982115 588.3854877109967 212.38380099992622 588.3854877109967ZM212.38380099992622 582.9360955098824Q214.55187447512728 582.9360955098824 216.20027095775686 582.2998544595235Q217.84866744038644 581.6636134091647 218.97252975380104 580.4280442146062Q220.09639206721565 579.1924750200477 220.6733788351865 577.3847762341619Q221.25036560315732 575.5770774482761 221.25036560315732 573.2438763305091V571.85285293839Q221.25036560315732 569.4846834214525 220.6733788351865 567.6595004359813Q220.09639206721565 565.8343174505102 218.97252975380104 564.5987482559517Q217.84866744038644 563.3631790613932 216.20027095775686 562.7269380110345Q214.55187447512728 562.0906969606756 212.38380099992622 562.0906969606756Q210.21572752472514 562.0906969606756 208.56733104209556 562.7269380110345Q206.91893455946598 563.3631790613932 205.79992942269487 564.5987482559517Q204.68092428592377 565.8343174505102 204.1214217175382 567.6595004359813Q203.56191914915263 569.4846834214525 203.56191914915263 571.85285293839V573.2438763305091Q203.56191914915263 575.5770774482761 204.1214217175382 577.3847762341619Q204.68092428592377 579.1924750200477 205.79992942269487 580.4280442146062Q206.91893455946598 581.6636134091647 208.56733104209556 582.2998544595235Q210.21572752472514 582.9360955098824 212.38380099992622 582.9360955098824Z M245.63996105469252 587.8492946815061V557.1774977890519H258.15114810611954Q262.93415530772256 557.1774977890519 266.2989651093032 558.8307596299812Q269.66377491088383 560.4840214709106 271.46565653911637 563.8624264580992Q273.2675381673489 567.2408314452879 273.2675381673489 572.513396235279Q273.2675381673489 577.7412782728125 271.46565653911637 581.1420246362298Q269.66377491088383 584.5427709996472 266.2989651093032 586.1960328405767Q262.93415530772256 587.8492946815061 258.15114810611954 587.8492946815061ZM252.3327250232889 582.3649340812212H258.11229069297167Q260.14049057149043 582.3649340812212 261.6917517029066 581.7782329599634Q263.24301283432277 581.1915318387056 264.2823668194658 580.0453281490622Q265.32172080460873 578.8991244594189 265.85402482012205 577.1759340018046Q266.3863288356353 575.4527435441904 266.3863288356353 573.1894792247646V571.872281644964Q266.3863288356353 569.5740489263676 265.85402482012205 567.8508584687534Q265.32172080460873 566.1276680111391 264.2823668194658 564.9814643214958Q263.24301283432277 563.8352606318524 261.6917517029066 563.2485595105945Q260.14049057149043 562.6618583893368 258.11229069297167 562.6618583893368H252.3327250232889Z M298.94121730828306 587.8492946815061V575.499378985293L287.0575414799067 557.1774977890519H294.7702470903848L302.3818219741399 569.5429204512363H302.59552138314064L310.1371594685545 557.1774977890519H317.4438312929373L305.63398127687947 575.499378985293V587.8492946815061Z  M352.09342715963317 587.8492946815061V557.1774977890519H369.6207822548633Q372.04919058016765 557.1774977890519 373.98803313542766 558.120692767304Q375.92687569068767 559.063887745556 377.05365885541346 560.7618323389429Q378.1804420201392 562.4597769323299 378.1804420201392 564.728882954378Q378.1804420201392 566.5783681863793 377.50048637998896 568.008216265021Q376.8205307398387 569.4380643436626 375.6762633755277 570.369600461639Q374.5319960112166 571.3011365796154 373.11186228586195 571.7732181500745V571.9519491599048Q374.79037817267493 572.3094111795651 376.126003569758 573.2856300499991Q377.46162896684103 574.2618489204332 378.2309501119064 575.8082610568622Q379.00027125697176 577.3546731932912 379.00027125697176 579.4625405867507Q379.00027125697176 582.2348075644512 377.741384341862 584.1017688143813Q376.4824974267522 585.9687300643116 374.38435256823595 586.9090123729088Q372.28620770971975 587.8492946815061 369.67906837458514 587.8492946815061ZM358.7861911282296 582.4135058476561H368.3560290921622Q370.01316358375624 582.4135058476561 371.07582710779417 581.4712872137266Q372.1384906318321 580.529068579797 372.1384906318321 578.5397261144261Q372.1384906318321 577.4148956383453 371.6906949445904 576.5591298396761Q371.24289925734877 575.7033640410068 370.3443952132106 575.2332269775363Q369.4458911690724 574.7630899140659 368.07628189879756 574.7630899140659H358.7861911282296ZM358.7861911282296 569.5720962377226H367.6061366536708Q368.8106182813797 569.5720962377226 369.6343283505332 569.114586197194Q370.4580384196868 568.6570761566653 370.8883499073431 567.8566756264067Q371.31866139499954 567.056275096148 371.31866139499954 566.0480004961984Q371.31866139499954 564.2956751603796 370.35118871518637 563.4107663018493Q369.3837160353732 562.5258574433191 367.85091544786485 562.5258574433191H358.7861911282296Z M396.51446635279035 587.8492946815061V557.1774977890519H413.32494472005465Q416.73054826011554 557.1774977890519 418.9792574129235 558.387821119383Q421.22796656573155 559.5981444497143 422.35474973045734 561.7623452742507Q423.4815328951831 563.9265460987872 423.4815328951831 566.7629245355191Q423.4815328951831 569.7469545968881 422.13133596816954 572.048116348452Q420.78113904115605 574.3492781000159 418.23811116505294 575.5596014303471L424.51506154101645 587.8492946815061H417.1403892436248L411.7143638529998 576.6883372837178H403.20723032138676V587.8492946815061ZM403.20723032138676 571.3904857212178H412.4409712975652Q414.4419644415554 571.3904857212178 415.56096957832654 570.1772579028882Q416.6799747150976 568.9640300845584 416.6799747150976 566.850353715102Q416.6799747150976 565.4923951234464 416.1826390987549 564.5501764895168Q415.6853034824122 563.6079578555873 414.7450293554713 563.0960507093141Q413.8047552285304 562.5841435630409 412.4409712975652 562.5841435630409H403.20723032138676Z M441.32211062546884 587.8492946815061V557.1774977890519H465.8102443874773V562.6618583893368H448.01487459406525V569.4943814114267H463.7470597464753V574.9107415387028H448.01487459406525V582.3649340812212H466.0880552555096V587.8492946815061Z M480.8669044614432 587.8492946815061 492.64176971501786 557.1774977890519H500.87317597374494L512.6830096264902 587.8492946815061H505.4793066742867L503.2743284745827 581.8016161337654H489.9530919928608L487.7481137931568 587.8492946815061ZM491.83365661005524 576.4590818188078H501.3685098115047L498.63511661026473 568.8863807115133Q498.4563856004345 568.4201244803639 498.21548763856146 567.7129702873415Q497.9745896766884 567.0058160943189 497.71620751523005 566.1743279972106Q497.45782535377174 565.3428399001025 497.1994431923134 564.4987247800525Q496.94106103085505 563.6546096600025 496.7273616218543 562.9940827264262H496.4748047997056Q496.22613699153425 563.8683090690033 495.865762302219 565.0009175730387Q495.5053876129038 566.1335260770741 495.15763994653037 567.1758009135283Q494.80989228015693 568.2180757499824 494.5670498112952 568.8863807115133Z M528.4817841109929 587.8492946815061V557.1774977890519H535.1745480795893V571.1534685916658L548.1849579827533 557.1774977890519H556.4066662515062L544.70562681025 569.647874738686L556.6300800137939 587.8492946815061H548.7095003336246L540.1226829237581 574.2677233496808L535.1745480795893 578.7224115914843V587.8492946815061Z M584.9905169148656 588.3854877109967Q582.3075990787675 588.3854877109967 579.8918095947486 587.8463820118512Q577.4760201107296 587.3072763127058 575.6255667160622 586.1328977258677Q573.7751133213948 584.9585191390296 572.7134097783667 583.1352642972345Q571.6517062353387 581.3120094554392 571.6517062353387 578.7534255234269Q571.6517062353387 578.5241864218294 571.669190434924 578.2803757903016Q571.6866746345092 578.0365651587738 571.6963889877961 577.8928025481141H578.3075491161195Q578.2978347628325 578.0015967596031 578.2803505632472 578.2279231915456Q578.2628663636619 578.4542496234883 578.2628663636619 578.6232662800315Q578.2628663636619 580.0686540512698 579.0632668939205 581.04584108437Q579.8636674241791 582.0230281174701 581.3702458031378 582.5135620501807Q582.8768241820964 583.0040959828913 584.9011350466378 583.0040959828913Q586.1716644587104 583.0040959828913 587.1945024069344 582.8593652095655Q588.2173403551582 582.7146344362396 588.985685155901 582.4280855592428Q589.7540299566439 582.1415366822462 590.2756514562041 581.7257967245203Q590.7972729557642 581.3100567667943 591.0478852709243 580.7728955746375Q591.2984975860843 580.2357343824807 591.2984975860843 579.5849218021914Q591.2984975860843 578.3862655137922 590.5039223951353 577.6150080433945Q589.7093472041863 576.8437505729968 588.3610947841614 576.3114465574836Q587.0128423641366 575.7791425419703 585.3168422777384 575.3439738776704Q583.6208421913401 574.9088052133704 581.8257622467397 574.4318664662678Q580.0306823021393 573.9549277191653 578.334682215741 573.2672022327167Q576.6386821293428 572.5794767462681 575.2904297093179 571.5818846622715Q573.942177289293 570.5842925782749 573.1476020983441 569.067991664373Q572.3530269073951 567.5516907504712 572.3530269073951 565.4224583251053Q572.3530269073951 563.1611139676991 573.3127379225664 561.4942487595054Q574.2724489377375 559.8273835513118 576.0063382746175 558.7530529853418Q577.7402276114976 557.678722419372 580.0277941774535 557.1600135894666Q582.3153607434094 556.6413047595613 584.971071844979 556.6413047595613Q587.4966237031531 556.6413047595613 589.7220233170663 557.1648707661101Q591.9474229309793 557.6884367726589 593.6492565383435 558.7977357377994Q595.3510901457078 559.9070347029399 596.3185710071773 561.6069238033155Q597.2860518686468 563.306812903691 597.2957662219338 565.6594590913446V566.1956521208352H590.7739715985256V565.8071107159816Q590.7739715985256 564.6181687808694 590.0745954334577 563.7633711448663Q589.3752192683899 562.9085735088631 588.0842848054207 562.426777585117Q586.7933503424515 561.9449816613709 585.0138182721041 561.9449816613709Q583.1488097108189 561.9449816613709 581.8306766949775 562.3004991740427Q580.5125436791361 562.6560166867145 579.8209373603665 563.3349959825422Q579.129331041597 564.0139752783699 579.129331041597 564.9697890979074Q579.129331041597 566.0285717896244 579.923906232546 566.7396068149678Q580.718481423495 567.4506418403114 582.0667338435198 567.9479774566541Q583.4149862635446 568.4453130729968 585.1109863499429 568.8629975377114Q586.8069864363412 569.280682002426 588.6020663809416 569.765390595827Q590.3971463255419 570.2500991892279 592.0931464119402 570.9106261228042Q593.7891464983385 571.5711530563805 595.1373989183634 572.5765149866754Q596.4856513383883 573.5818769169703 597.2802265293371 575.0564077480694Q598.0748017202861 576.5309385791686 598.0748017202861 578.60577389879Q598.0748017202861 582.1240606643172 596.379769796554 584.282436149544Q594.6847378728219 586.4408116347707 591.7288745269914 587.4131496728837Q588.7730111811608 588.3854877109967 584.9905169148656 588.3854877109967Z" fill="#ffffff"/></g></svg>